<?xml version="1.0" encoding="utf-8"?><svg version="1.1" id="Layer_1" fill="#4219d0" xmlns="http://www.w3.org/2000/svg" xmlns:xlink="http://www.w3.org/1999/xlink" x="0px" y="0px" viewBox="0 0 122.88 116.22" style="enable-background:new 0 0 122.88 116.22" xml:space="preserve"><g><path d="M41.68,75.91c6.32,13.18,25.49,13.65,31.54,0.08c-1.65-1.67-2.88-3.46-4.09-5.24c-0.2-0.29-0.4-0.58-0.6-0.88 c-2.92,2.32-6.47,3.8-11.09,3.79c-4.98-0.01-8.74-1.92-11.81-4.73c-0.18-0.17-0.37-0.34-0.55-0.51c-0.44,1.22-1,2.69-1.6,4.06 C42.9,73.78,42.28,75.02,41.68,75.91L41.68,75.91L41.68,75.91z M84.73,93.6l4.54-4.76l6.55,6.3l10.2-13.59l5.07,4.09 c-2.39,2.96-10.91,14.65-12.77,16.17c-1.53,1.25-3.73,1.25-5.15-0.12L84.73,93.6L84.73,93.6z M97.97,66.4 c6.88,0,13.1,2.79,17.61,7.3c4.51,4.51,7.29,10.73,7.29,17.61c0,6.88-2.79,13.1-7.29,17.61c-4.51,4.51-10.73,7.3-17.61,7.3 c-6.88,0-13.1-2.79-17.61-7.3c-4.51-4.51-7.3-10.73-7.3-17.61c0-4.98,1.46-9.62,3.98-13.51c-0.72-0.31-1.43-0.67-2.2-1.1 c-3.06,14.18-27.23,17.6-34.69,0.81c-5.27,2.65-10.62,4.66-16.74,5.61l3.56,25.69H5.76c-10.52-0.8-4.03-16-0.86-20.19 c1.52-2.01,3.41-3.49,5.5-4.66c6.28-3.5,22.63-4.66,29.41-9.39c0.5-0.75,1.04-1.84,1.55-3.02c0.78-1.78,1.49-3.72,1.94-5.04 c-1.9-2.23-3.52-4.75-5.08-7.24l-5.14-8.17c-1.88-2.8-2.86-5.37-2.92-7.47c-0.03-0.99,0.14-1.89,0.5-2.68 c0.38-0.83,0.97-1.52,1.77-2.05c0.37-0.25,0.79-0.46,1.25-0.64c-0.33-4.43-0.46-10.02-0.24-14.7c0.11-1.11,0.32-2.22,0.63-3.33 c1.31-4.69,4.61-8.47,8.68-11.07c2.25-1.43,4.71-2.51,7.28-3.24c1.63-0.46-1.39-5.68,0.3-5.85C58.49-0.77,71.7,6.68,77.4,12.84 c2.85,3.09,4.64,7.18,5.03,12.6l-0.32,13.34v0c1.43,0.43,2.34,1.34,2.71,2.8c0.41,1.62-0.04,3.91-1.41,7.02l0,0 c-0.02,0.06-0.05,0.11-0.09,0.17l-5.86,9.65c-2.15,3.54-4.34,7.1-7.19,9.9c0.26,0.37,0.51,0.74,0.77,1.12 c1.16,1.7,2.33,3.4,3.83,4.92c0.05,0.05,0.09,0.1,0.13,0.16c0.89,0.63,1.96,1.2,3.15,1.72c0.68-0.89,1.42-1.74,2.21-2.53 C84.87,69.19,91.1,66.4,97.97,66.4L97.97,66.4L97.97,66.4z M36.64,40.62c-1.14,0.04-2,0.28-2.59,0.68 c-0.34,0.23-0.58,0.51-0.74,0.86c-0.18,0.38-0.26,0.84-0.24,1.38c0.04,1.56,0.86,3.61,2.45,5.96l0.02,0.03l5.14,8.17 c2.06,3.28,4.22,6.62,6.91,9.07c2.58,2.36,5.72,3.96,9.86,3.97c4.49,0.01,7.77-1.65,10.43-4.14c2.77-2.59,4.95-6.15,7.11-9.69 l5.79-9.54c1.08-2.46,1.47-4.11,1.23-5.08c-0.15-0.58-0.78-0.86-1.86-0.91c-0.23-0.01-0.47-0.01-0.7-0.01 c-0.26,0.01-0.53,0.03-0.81,0.05c-0.15,0.01-0.3,0-0.45-0.03c-0.52,0.03-1.05-0.01-1.59-0.09l1.98-8.78 c-14.71,2.32-25.72-8.61-41.27-2.19l1.12,10.34C37.79,40.73,37.19,40.71,36.64,40.62L36.64,40.62L36.64,40.62L36.64,40.62z M97.97,70.26c-5.81,0-11.08,2.36-14.89,6.17c-3.81,3.81-6.17,9.07-6.17,14.89c0,11.63,9.43,21.05,21.06,21.05 c5.81,0,11.08-2.36,14.89-6.17c3.81-3.81,6.17-9.07,6.17-14.89C119.03,79.68,109.6,70.26,97.97,70.26L97.97,70.26z"/></g></svg>
