<svg xmlns="http://www.w3.org/2000/svg" xmlns:xlink="http://www.w3.org/1999/xlink" width="224.563" height="176.656" viewBox="0 0 224.563 176.656">
  <defs>
    <clipPath id="clip-path">
      <rect id="Rectangle_10296" data-name="Rectangle 10296" width="67.933" height="67.933" fill="none"/>
    </clipPath>
    <clipPath id="clip-path-2">
      <rect id="Rectangle_10297" data-name="Rectangle 10297" width="64.366" height="39.169" fill="none"/>
    </clipPath>
  </defs>
  <g id="Group_101569" data-name="Group 101569" transform="translate(-865.437 -367.261)">
    <path id="Path_37277" data-name="Path 37277" d="M0,646.793c0-10.386,43.42-18.806,96.98-18.806s96.981,8.419,96.981,18.806-43.42,18.8-96.981,18.8S0,657.18,0,646.793" transform="translate(865.437 -121.68)" fill="#e9eefd"/>
    <path id="Path_37278" data-name="Path 37278" d="M873.895,235.847c.657-.122,2.861-.753,6.051-4.034,2.862-2.944,6.878-10.906,9.183-6.892-.716,4.465-1.007,9.829-1.007,9.829-.706,2.643-4.4,5.342-7.048,6.571l-8.678,2.78s-3.972-2.385-4.179-2.465l.512-1.837a19.885,19.885,0,0,0,5.167-3.953" transform="translate(168.349 202.83)" fill="#f7b58e"/>
    <path id="Path_37279" data-name="Path 37279" d="M885.01,250.878a3.463,3.463,0,0,0,.693-.021c-.161.569-.288,1.141-.394,1.715-1.3,1.7-2.55,3.445-3.833,5.161-.942-.936-2.266-2.246-2.376-2.323l6.028-13.033s1.927.115,1.631,3.152a13.6,13.6,0,0,1-1.749,5.35" transform="translate(159.61 187.926)" fill="#f7b58e"/>
    <path id="Path_37280" data-name="Path 37280" d="M507.312,220.981c-.05,13.69,29.492,44.367,39.893,39.368s35.231-23.008,35.231-23.008l-1.261-7.714L549.123,240.8l-19.765-21.01s-22-12.5-22.047,1.186" transform="translate(458.117 210.25)" fill="#37bdf7"/>
    <path id="Path_37281" data-name="Path 37281" d="M495.832,128.22l1.212,11.924-12.778.506,2.561-18.486Z" transform="translate(476.621 284.443)" fill="#f39f85"/>
    <path id="Path_37282" data-name="Path 37282" d="M496.672,58.808a6.415,6.415,0,0,0,3.677.12c5.767-4.884,5.468-22.36,5.468-22.36l-5.846-4.577-9.814,2.95-3.431,10.723a9.126,9.126,0,0,0,1.709,8.506,17.816,17.816,0,0,0,8.237,4.638" transform="translate(474.976 356.844)" fill="#f7b58e"/>
    <path id="Path_37283" data-name="Path 37283" d="M477.069,15.766c.957-1.7,1.862-5.97,3.635-5.161,1.294.59,5.883,2.044,7.444,2.469,3.721,1.013,10.751,1.362,12.293-4.3.771-2.831-1.311-6.02-2.853-7.219A7.818,7.818,0,0,0,492.225.022c-4.488.317-10.783,2-12.831.973-3.447-1.725-7.667-.577-8.458,2.536-.846,3.324-.474,8.772.292,12.377a18.024,18.024,0,0,0,2.393,5.874Z" transform="translate(487.713 382.529)" fill="#212b53"/>
    <path id="Path_37284" data-name="Path 37284" d="M480.715,76.1a2.9,2.9,0,0,1,3.383,1.253c.839,1.2.686,2.581-.342,3.088a2.9,2.9,0,0,1-3.383-1.254c-.84-1.2-.686-2.581.342-3.088" transform="translate(480.183 321.582)" fill="#f7b58e"/>
    <path id="Path_37285" data-name="Path 37285" d="M373.776,297l.169,63.248h54.387l.073-63.948" transform="translate(565.333 144.631)" fill="#8fd3fe"/>
    <path id="Path_37286" data-name="Path 37286" d="M428.4,214.838a22.088,22.088,0,0,0-9.52-13.132,48.781,48.781,0,0,0-6.01-3.245,18.225,18.225,0,0,0-9.64-3.4q-.636-.023-1.292-.024c-2.1,0-4.4-.654-5.888.437l-.326.238c-1.987.311-5.442,1.436-10.108,4.694-14.171,9.895-11.675,15.811-11.675,15.811" transform="translate(565.333 226.094)" fill="#8fd3fe"/>
    <path id="Path_37287" data-name="Path 37287" d="M492.557,179.49H481.195l-1.808,4.183,14.829.394Z" transform="translate(480.538 238.418)" fill="#d6f0ff"/>
    <path id="Path_37288" data-name="Path 37288" d="M129.635,531.947c-7.686,23.1,94.254,33.428,94.254,33.428l2.434-13.056s-89-43.472-96.688-20.372" transform="translate(761.686 -39.139)" fill="#6743d6"/>
    <path id="Path_37289" data-name="Path 37289" d="M640.763,690.655l14.621.873,2.768-4.231-1.4-5.511-13.82-1.993Z" transform="translate(350.971 -163.275)" fill="#f7b58e"/>
    <path id="Path_37290" data-name="Path 37290" d="M714.943,677.814l14.875-1.8a30.543,30.543,0,0,1,10.906-.673v13.5a36.022,36.022,0,0,1-7.683-.05l-18.1-1.042.205-1.5a7.525,7.525,0,0,0-.205-8.439" transform="translate(291.411 -159.5)" fill="#3a2982"/>
    <path id="Path_37291" data-name="Path 37291" d="M853,682.27c-1-3.815-4.186-5.412-7.639-5.96v13.522c4.48-.5,9.024-2.268,7.639-7.562" transform="translate(186.697 -160.479)" fill="#6743d6"/>
    <line id="Line_1985" data-name="Line 1985" y2="5.811" transform="translate(1014.396 519.303)" fill="#f7b58e"/>
    <rect id="Rectangle_10291" data-name="Rectangle 10291" width="1.488" height="5.811" transform="translate(1013.652 519.303)" fill="#fff"/>
    <line id="Line_1986" data-name="Line 1986" y2="5.811" transform="translate(1018.068 519.303)" fill="#f7b58e"/>
    <rect id="Rectangle_10292" data-name="Rectangle 10292" width="1.487" height="5.811" transform="translate(1017.324 519.303)" fill="#fff"/>
    <path id="Path_37292" data-name="Path 37292" d="M610.755,652.8l-2.727,16.859,6.446,1.24,3.223-16.115Z" transform="translate(377.253 -141.6)" fill="#3a2982"/>
    <path id="Path_37293" data-name="Path 37293" d="M489.445,531.1c7.685,23.1-94.254,35.211-94.254,35.211l-2.434-16.622s89-41.689,96.688-18.589" transform="translate(550.093 -38.287)" fill="#807dfb"/>
    <path id="Path_37294" data-name="Path 37294" d="M303.026,682.8,288.4,684.263l-2.768-4.231,1.4-5.511,13.82-3.776Z" transform="translate(636.1 -156.01)" fill="#f7b58e"/>
    <path id="Path_37295" data-name="Path 37295" d="M168.632,675.357a30.5,30.5,0,0,1,10.955.664l14.875,1.8a7.526,7.526,0,0,0-.205,8.439l.205,1.5-18.1,1.043a35.948,35.948,0,0,1-7.732.045Z" transform="translate(730.042 -159.502)" fill="#3a2982"/>
    <path id="Path_37296" data-name="Path 37296" d="M129.474,682.27c1-3.815,4.186-5.412,7.639-5.96v13.522c-4.48-.5-9.024-2.268-7.639-7.562" transform="translate(761.686 -160.479)" fill="#6743d6"/>
    <line id="Line_1987" data-name="Line 1987" y2="5.811" transform="translate(916.463 519.303)" fill="#f7b58e"/>
    <rect id="Rectangle_10293" data-name="Rectangle 10293" width="1.488" height="5.811" transform="translate(915.719 519.303)" fill="#fff"/>
    <line id="Line_1988" data-name="Line 1988" y2="5.811" transform="translate(912.79 519.303)" fill="#f7b58e"/>
    <rect id="Rectangle_10294" data-name="Rectangle 10294" width="1.488" height="5.811" transform="translate(912.047 519.303)" fill="#fff"/>
    <path id="Path_37297" data-name="Path 37297" d="M364.481,652.8l2.727,16.859-6.446,1.24-3.223-16.115Z" transform="translate(578.369 -141.6)" fill="#6b6be8"/>
    <path id="Path_37298" data-name="Path 37298" d="M525.919,144.82s1.262-2.8,5.113,1.243" transform="translate(443.178 267.01)" fill="none" stroke="#f2f7fa" stroke-linecap="round" stroke-miterlimit="10" stroke-width="0.75"/>
    <path id="Path_37299" data-name="Path 37299" d="M884.22,108.307V68.79a.645.645,0,0,1,.645-.645h27.979a.645.645,0,0,1,.645.645v39.517a.645.645,0,0,1-.645.645H884.865a.645.645,0,0,1-.645-.645" transform="translate(155.499 327.816)" fill="#d6f0ff"/>
    <path id="Path_37300" data-name="Path 37300" d="M890.13,240.825a3.461,3.461,0,0,0,.693-.021c-.161.569-.288,1.141-.394,1.715-1.3,1.7-2.55,3.445-3.833,5.161-.942-.936-2.266-2.246-2.376-2.323l6.028-13.033s1.927.115,1.631,3.152a13.6,13.6,0,0,1-1.749,5.35" transform="translate(155.499 195.998)" fill="#f7b58e"/>
    <rect id="Rectangle_10295" data-name="Rectangle 10295" width="5.154" height="5.079" transform="translate(1027.799 447.902) rotate(-51.626)" fill="#3a2982"/>
    <path id="Path_37301" data-name="Path 37301" d="M715.972,367.188l21.279-26.981-1.712-1.084-24.476,31.036c1.885,1.5,3.143-.731,4.909-2.971" transform="translate(294.526 110.248)" fill="#6743d6"/>
    <path id="Path_37302" data-name="Path 37302" d="M730.892,329.42,709.613,356.4c-1.766,2.239-3.542,4.441-1.658,5.941l24.476-31.036Z" transform="translate(297.669 118.039)" fill="#3a2982"/>
    <g id="Group_101565" data-name="Group 101565" transform="translate(1020.074 384.396)" opacity="0.15">
      <g id="Group_101564" data-name="Group 101564">
        <g id="Group_101563" data-name="Group 101563" clip-path="url(#clip-path)">
          <path id="Path_37303" data-name="Path 37303" d="M851.322,52.231a33.958,33.958,0,1,1-24.017-41.587,33.958,33.958,0,0,1,24.017,41.587" transform="translate(-784.554 -9.478)" fill="#fff"/>
        </g>
      </g>
    </g>
    <path id="Path_37304" data-name="Path 37304" d="M851.024,36.228a35.354,35.354,0,1,0-31.032,39.2,35.355,35.355,0,0,0,31.032-39.2M796.073,65.663a32.187,32.187,0,1,1,45.184-5.517,32.187,32.187,0,0,1-45.184,5.517" transform="translate(238.735 378.551)" fill="#6743d6"/>
    <g id="Group_101568" data-name="Group 101568" transform="translate(1022.465 411.883)" style="mix-blend-mode: multiply;isolation: isolate">
      <g id="Group_101567" data-name="Group 101567">
        <g id="Group_101566" data-name="Group 101566" clip-path="url(#clip-path-2)">
          <path id="Path_37305" data-name="Path 37305" d="M860.278,148.92a32.187,32.187,0,0,1-63.6,7.764,32.187,32.187,0,1,0,63.6-7.764" transform="translate(-796.679 -148.92)" fill="#e9edf7"/>
        </g>
      </g>
    </g>
    <path id="Path_37306" data-name="Path 37306" d="M684.125,453.544c-1.012-2.447.279-5.245,3.522-8.049s7.362-7.214,8.807-4.958,1.4,4.4,2.347,4.377c2.114,2-2.346,7.066-4.368,8.038s-10.308.592-10.308.592" transform="translate(316.426 29.322)" fill="#f7b58e"/>
    <path id="Path_37307" data-name="Path 37307" d="M374.073,249.888c-6.125,12.243,6.719,52.849,18.257,52.99s41.785-4.967,41.785-4.967l2.3-7.472-33.682-4.219-8.377-27.6s-14.155-20.973-20.28-8.729" transform="translate(566.365 184.975)" fill="#d6f0ff"/>
    <path id="Path_37308" data-name="Path 37308" d="M381.224,77.543,381,76.837a6.155,6.155,0,0,1,.829-5.2c1.044-1.767,1.565-3.013,1.291-4.257a2.393,2.393,0,0,0-3.3-1.159,7.273,7.273,0,0,0-2.767,1.973l-1.572-2.2a10.091,10.091,0,0,1,4.339-2.466c3.492-.769,5.5.848,5.966,2.95.414,1.881-.441,3.49-1.552,5.388a5.323,5.323,0,0,0-.836,4.447l.189.713Zm.184,4.02a1.755,1.755,0,0,1,1.438-2.144,1.772,1.772,0,1,1-1.438,2.144" transform="translate(563.768 331.682)" fill="#37bdf7"/>
    <path id="Path_37309" data-name="Path 37309" d="M379.017,72.077l-.135-.434a3.788,3.788,0,0,1,.51-3.2,3.713,3.713,0,0,0,.795-2.62,1.473,1.473,0,0,0-2.031-.713,4.476,4.476,0,0,0-1.7,1.214l-.968-1.356a6.21,6.21,0,0,1,2.671-1.518c2.149-.473,3.387.522,3.672,1.815.255,1.158-.272,2.148-.955,3.316a3.276,3.276,0,0,0-.514,2.737l.116.439Zm.113,2.474a1.08,1.08,0,0,1,.885-1.319,1.091,1.091,0,1,1-.885,1.319" transform="matrix(0.875, 0.485, -0.485, 0.875, 698.261, 170.838)" fill="#37bdf7"/>
    <path id="Path_37310" data-name="Path 37310" d="M378.355,70.436l-.11-.353a3.077,3.077,0,0,1,.415-2.6,3.016,3.016,0,0,0,.646-2.129,1.2,1.2,0,0,0-1.65-.579,3.636,3.636,0,0,0-1.384.987l-.786-1.1a5.045,5.045,0,0,1,2.17-1.233c1.746-.384,2.752.424,2.983,1.475a3.714,3.714,0,0,1-.776,2.694,2.662,2.662,0,0,0-.418,2.224l.094.356Zm.092,2.01a.877.877,0,0,1,.719-1.072.886.886,0,1,1-.719,1.072" transform="translate(607.443 252.291) rotate(8)" fill="#37bdf7"/>
  </g>
</svg>
