<svg xmlns="http://www.w3.org/2000/svg" width="500" height="500" style="width:100%;height:100%;transform:translate3d(0,0,0);content-visibility:visible" viewBox="0 0 500 500"><defs><clipPath id="a"><path d="M0 0h500v500H0z"/></clipPath></defs><g clip-path="url(#a)"><path fill="none" stroke="#121330" stroke-linecap="round" stroke-linejoin="round" stroke-width="3.5" d="M20.8-37.791c16.196 16.196 16.196 42.456 0 58.652-16.196 16.196-42.457 16.196-58.653 0-16.196-16.196-16.196-42.456 0-58.652 16.196-16.196 42.457-16.196 58.653 0z" style="display:block" transform="matrix(3.5 0 0 3.5 249.999 250)"/><path fill="none" stroke="#402FE8" stroke-linecap="round" stroke-linejoin="round" stroke-width="3.64" d="M-39.647-21.188a33.168 33.168 0 0 1 7.333-11.065 33.149 33.149 0 0 1 13.465-8.196" style="display:block" transform="matrix(3.5 0 0 3.5 249.999 250)"/><path fill="none" stroke="#121330" stroke-linecap="round" stroke-linejoin="round" stroke-width="4.2" d="m21.486 21.427 25.156 24.725" style="display:block" transform="matrix(3.5 0 0 3.5 249.999 250)"/><g class="com" style="display:none"><path/><path/><path/><path/><path/><path/><path/><path/><path/><path/><path/><path/></g></g></svg>